<svg width="13640" height="6480" viewBox="-0.5 -0.5 13640 6480" xmlns="http://www.w3.org/2000/svg" xmlns:xlink="http://www.w3.org/1999/xlink" overflow="hidden"><defs></defs><rect x="0" y="0" width="100%" height="100%" fill="#FFFFFF"/><g><g><g><g><g><g><svg width="13640" height="6480" x="-0.5" y="-0.5" viewBox="0 0 1364 648" preserveAspectRatio="none" xmlns="http://www.w3.org/2000/svg" xmlns:xlink="http://www.w3.org/1999/xlink" font-family="initial" overflow="hidden"><defs></defs><g><g id="cluster_数墙游戏系统"><path d="M8.5 6 93.5 6C94.6985 6.36356 95.6364 7.30147 96 8.5L103 26.9844 1354.5 26.9844C1355.88 26.9844 1357 28.1037 1357 29.4844L1357 638.5C1357 639.881 1355.88 641 1354.5 641L8.5 641C7.11929 641 6 639.881 6 638.5L6 8.5C6 7.11929 7.11929 6 8.5 6" stroke="#000000" stroke-width="1.5" fill="none"/><line x1="6" y1="26.9844" x2="103" y2="26.9844" stroke="#000000" stroke-width="1.5"/><text font-family="Arial" font-weight="700" font-size="14" x="10" y="21.2344">数墙游戏系统</text></g><g id="cluster_前端"><path d="M58.5 47 87.5 47C88.6985 47.3636 89.6364 48.3015 90 49.5L97 67.9844 719.5 67.9844C720.881 67.9844 722 69.1037 722 70.4844L722 138.5C722 139.881 720.881 141 719.5 141L58.5 141C57.1193 141 56 139.881 56 138.5L56 49.5C56 48.1193 57.1193 47 58.5 47" stroke="#000000" stroke-width="1.5" fill="none"/><line x1="56" y1="67.9844" x2="97" y2="67.9844" stroke="#000000" stroke-width="1.5"/><text font-family="Arial" font-weight="700" font-size="14" x="60" y="62.2344">前端</text></g><g id="cluster_后端"><path d="M32.5 202 61.5 202C62.6985 202.364 63.6364 203.301 64 204.5L71 222.984 1330.5 222.984C1331.88 222.984 1333 224.104 1333 225.484L1333 390.5C1333 391.881 1331.88 393 1330.5 393L32.5 393C31.1193 393 30 391.881 30 390.5L30 204.5C30 203.119 31.1193 202 32.5 202" stroke="#000000" stroke-width="1.5" fill="none"/><line x1="30" y1="222.984" x2="71" y2="222.984" stroke="#000000" stroke-width="1.5"/><text font-family="Arial" font-weight="700" font-size="14" x="34" y="217.234">后端</text></g><g id="cluster_userModule"><rect x="62" y="251" rx="2.5" ry="2.5" width="350" height="110" stroke="#181818" fill="none"/><rect x="392" y="256" width="15" height="10" stroke="#181818" fill="none"/><rect x="390" y="258" width="4" height="2" stroke="#181818" fill="none"/><rect x="390" y="262" width="4" height="2" stroke="#181818" fill="none"/><text font-family="Arial" font-weight="700" font-size="14" x="195" y="277.234">用户管理模块</text></g><g id="cluster_problemModule"><rect x="1040" y="251" rx="2.5" ry="2.5" width="261" height="110" stroke="#181818" fill="none"/><rect x="1281" y="256" width="15" height="10" stroke="#181818" fill="none"/><rect x="1279" y="258" width="4" height="2" stroke="#181818" fill="none"/><rect x="1279" y="262" width="4" height="2" stroke="#181818" fill="none"/><text font-family="Arial" font-weight="700" font-size="14" x="1128.5" y="277.234">题目生成模块</text></g><g id="cluster_rankModule"><rect x="452" y="251" rx="2.5" ry="2.5" width="289" height="110" stroke="#181818" fill="none"/><rect x="721" y="256" width="15" height="10" stroke="#181818" fill="none"/><rect x="719" y="258" width="4" height="2" stroke="#181818" fill="none"/><rect x="719" y="262" width="4" height="2" stroke="#181818" fill="none"/><text font-family="Arial" font-weight="700" font-size="14" x="561.5" y="277.234">排行榜模块</text></g><g id="cluster_recordModule"><rect x="781" y="251" rx="2.5" ry="2.5" width="219" height="110" stroke="#181818" fill="none"/><rect x="980" y="256" width="15" height="10" stroke="#181818" fill="none"/><rect x="978" y="258" width="4" height="2" stroke="#181818" fill="none"/><rect x="978" y="262" width="4" height="2" stroke="#181818" fill="none"/><text font-family="Arial" font-weight="700" font-size="14" x="848.5" y="277.234">游戏记录模块</text></g><g id="cluster_数据库"><path d="M163.5 426 206.5 426C207.699 426.364 208.636 427.301 209 428.5L216 446.984 1001.5 446.984C1002.88 446.984 1004 448.104 1004 449.484L1004 614.5C1004 615.881 1002.88 617 1001.5 617L163.5 617C162.119 617 161 615.881 161 614.5L161 428.5C161 427.119 162.119 426 163.5 426" stroke="#000000" stroke-width="1.5" fill="none"/><line x1="161" y1="446.984" x2="216" y2="446.984" stroke="#000000" stroke-width="1.5"/><text font-family="Arial" font-weight="700" font-size="14" x="165" y="441.234">数据库</text></g><g id="cluster_userTable"><rect x="193" y="475" rx="2.5" ry="2.5" width="219" height="110" stroke="#181818" fill="none"/><rect x="392" y="480" width="15" height="10" stroke="#181818" fill="none"/><rect x="390" y="482" width="4" height="2" stroke="#181818" fill="none"/><rect x="390" y="486" width="4" height="2" stroke="#181818" fill="none"/><text font-family="Arial" font-weight="700" font-size="14" x="281.5" y="501.234">用户表</text></g><g id="cluster_recordTable"><rect x="753" y="475" rx="2.5" ry="2.5" width="219" height="110" stroke="#181818" fill="none"/><rect x="952" y="480" width="15" height="10" stroke="#181818" fill="none"/><rect x="950" y="482" width="4" height="2" stroke="#181818" fill="none"/><rect x="950" y="486" width="4" height="2" stroke="#181818" fill="none"/><text font-family="Arial" font-weight="700" font-size="14" x="827.5" y="501.234">游戏记录表</text></g><g id="cluster_rankTable"><rect x="452" y="475" rx="2.5" ry="2.5" width="261" height="110" stroke="#181818" fill="none"/><rect x="693" y="480" width="15" height="10" stroke="#181818" fill="none"/><rect x="691" y="482" width="4" height="2" stroke="#181818" fill="none"/><rect x="691" y="486" width="4" height="2" stroke="#181818" fill="none"/><text font-family="Arial" font-weight="700" font-size="14" x="554.5" y="501.234">排行榜表</text></g><g id="entity_frontLogin"><rect x="72" y="80" rx="2.5" ry="2.5" width="124" height="44.9844" stroke="#181818" stroke-width="0.5" fill="#F1F1F1"/><rect x="176" y="85" width="15" height="10" stroke="#181818" stroke-width="0.5" fill="#F1F1F1"/><rect x="174" y="87" width="4" height="2" stroke="#181818" stroke-width="0.5" fill="#F1F1F1"/><rect x="174" y="91" width="4" height="2" stroke="#181818" stroke-width="0.5" fill="#F1F1F1"/><text font-family="Arial" font-size="14" x="87" y="113.234">登录注册页面</text></g><g id="entity_frontHome"><rect x="362" y="80" rx="2.5" ry="2.5" width="68" height="44.9844" stroke="#181818" stroke-width="0.5" fill="#F1F1F1"/><rect x="410" y="85" width="15" height="10" stroke="#181818" stroke-width="0.5" fill="#F1F1F1"/><rect x="408" y="87" width="4" height="2" stroke="#181818" stroke-width="0.5" fill="#F1F1F1"/><rect x="408" y="91" width="4" height="2" stroke="#181818" stroke-width="0.5" fill="#F1F1F1"/><text font-family="Arial" font-size="14" x="377" y="113.234">主页</text></g><g id="entity_frontRank"><rect x="465" y="80" rx="2.5" ry="2.5" width="110" height="44.9844" stroke="#181818" stroke-width="0.5" fill="#F1F1F1"/><rect x="555" y="85" width="15" height="10" stroke="#181818" stroke-width="0.5" fill="#F1F1F1"/><rect x="553" y="87" width="4" height="2" stroke="#181818" stroke-width="0.5" fill="#F1F1F1"/><rect x="553" y="91" width="4" height="2" stroke="#181818" stroke-width="0.5" fill="#F1F1F1"/><text font-family="Arial" font-size="14" x="480" y="113.234">排行榜页面</text></g><g id="entity_frontTutorial"><rect x="231" y="80" rx="2.5" ry="2.5" width="96" height="44.9844" stroke="#181818" stroke-width="0.5" fill="#F1F1F1"/><rect x="307" y="85" width="15" height="10" stroke="#181818" stroke-width="0.5" fill="#F1F1F1"/><rect x="305" y="87" width="4" height="2" stroke="#181818" stroke-width="0.5" fill="#F1F1F1"/><rect x="305" y="91" width="4" height="2" stroke="#181818" stroke-width="0.5" fill="#F1F1F1"/><text font-family="Arial" font-size="14" x="246" y="113.234">教程页面</text></g><g id="entity_frontGame"><rect x="610" y="80" rx="2.5" ry="2.5" width="96" height="44.9844" stroke="#181818" stroke-width="0.5" fill="#F1F1F1"/><rect x="686" y="85" width="15" height="10" stroke="#181818" stroke-width="0.5" fill="#F1F1F1"/><rect x="684" y="87" width="4" height="2" stroke="#181818" stroke-width="0.5" fill="#F1F1F1"/><rect x="684" y="91" width="4" height="2" stroke="#181818" stroke-width="0.5" fill="#F1F1F1"/><text font-family="Arial" font-size="14" x="625" y="113.234">游戏页面</text></g><g id="entity_用户登录注册"><rect x="264" y="292" rx="2.5" ry="2.5" width="124" height="44.9844" stroke="#181818" stroke-width="0.5" fill="#F1F1F1"/><rect x="368" y="297" width="15" height="10" stroke="#181818" stroke-width="0.5" fill="#F1F1F1"/><rect x="366" y="299" width="4" height="2" stroke="#181818" stroke-width="0.5" fill="#F1F1F1"/><rect x="366" y="303" width="4" height="2" stroke="#181818" stroke-width="0.5" fill="#F1F1F1"/><text font-family="Arial" font-size="14" x="279" y="325.234">用户登录注册</text></g><g id="entity_用户会话管理"><rect x="105" y="292" rx="2.5" ry="2.5" width="124" height="44.9844" stroke="#181818" stroke-width="0.5" fill="#F1F1F1"/><rect x="209" y="297" width="15" height="10" stroke="#181818" stroke-width="0.5" fill="#F1F1F1"/><rect x="207" y="299" width="4" height="2" stroke="#181818" stroke-width="0.5" fill="#F1F1F1"/><rect x="207" y="303" width="4" height="2" stroke="#181818" stroke-width="0.5" fill="#F1F1F1"/><text font-family="Arial" font-size="14" x="120" y="325.234">用户会话管理</text></g><g id="entity_生成不同难度的数墙题目"><rect x="1083" y="292" rx="2.5" ry="2.5" width="194" height="44.9844" stroke="#181818" stroke-width="0.5" fill="#F1F1F1"/><rect x="1257" y="297" width="15" height="10" stroke="#181818" stroke-width="0.5" fill="#F1F1F1"/><rect x="1255" y="299" width="4" height="2" stroke="#181818" stroke-width="0.5" fill="#F1F1F1"/><rect x="1255" y="303" width="4" height="2" stroke="#181818" stroke-width="0.5" fill="#F1F1F1"/><text font-family="Arial" font-size="14" x="1098" y="325.234">生成不同难度的数墙题目</text></g><g id="entity_记录和展示用户通关时间排行"><rect x="495" y="292" rx="2.5" ry="2.5" width="222" height="44.9844" stroke="#181818" stroke-width="0.5" fill="#F1F1F1"/><rect x="697" y="297" width="15" height="10" stroke="#181818" stroke-width="0.5" fill="#F1F1F1"/><rect x="695" y="299" width="4" height="2" stroke="#181818" stroke-width="0.5" fill="#F1F1F1"/><rect x="695" y="303" width="4" height="2" stroke="#181818" stroke-width="0.5" fill="#F1F1F1"/><text font-family="Arial" font-size="14" x="510" y="325.234">记录和展示用户通关时间排行</text></g><g id="entity_记录用户游戏记录"><rect x="824" y="292" rx="2.5" ry="2.5" width="152" height="44.9844" stroke="#181818" stroke-width="0.5" fill="#F1F1F1"/><rect x="956" y="297" width="15" height="10" stroke="#181818" stroke-width="0.5" fill="#F1F1F1"/><rect x="954" y="299" width="4" height="2" stroke="#181818" stroke-width="0.5" fill="#F1F1F1"/><rect x="954" y="303" width="4" height="2" stroke="#181818" stroke-width="0.5" fill="#F1F1F1"/><text font-family="Arial" font-size="14" x="839" y="325.234">记录用户游戏记录</text></g><g id="entity_存储用户基本信息"><rect x="236" y="516" rx="2.5" ry="2.5" width="152" height="44.9844" stroke="#181818" stroke-width="0.5" fill="#F1F1F1"/><rect x="368" y="521" width="15" height="10" stroke="#181818" stroke-width="0.5" fill="#F1F1F1"/><rect x="366" y="523" width="4" height="2" stroke="#181818" stroke-width="0.5" fill="#F1F1F1"/><rect x="366" y="527" width="4" height="2" stroke="#181818" stroke-width="0.5" fill="#F1F1F1"/><text font-family="Arial" font-size="14" x="251" y="549.234">存储用户基本信息</text></g><g id="entity_存储用户游戏记录"><rect x="796" y="516" rx="2.5" ry="2.5" width="152" height="44.9844" stroke="#181818" stroke-width="0.5" fill="#F1F1F1"/><rect x="928" y="521" width="15" height="10" stroke="#181818" stroke-width="0.5" fill="#F1F1F1"/><rect x="926" y="523" width="4" height="2" stroke="#181818" stroke-width="0.5" fill="#F1F1F1"/><rect x="926" y="527" width="4" height="2" stroke="#181818" stroke-width="0.5" fill="#F1F1F1"/><text font-family="Arial" font-size="14" x="811" y="549.234">存储用户游戏记录</text></g><g id="entity_存储各关卡通关时间排行"><rect x="495" y="516" rx="2.5" ry="2.5" width="194" height="44.9844" stroke="#181818" stroke-width="0.5" fill="#F1F1F1"/><rect x="669" y="521" width="15" height="10" stroke="#181818" stroke-width="0.5" fill="#F1F1F1"/><rect x="667" y="523" width="4" height="2" stroke="#181818" stroke-width="0.5" fill="#F1F1F1"/><rect x="667" y="527" width="4" height="2" stroke="#181818" stroke-width="0.5" fill="#F1F1F1"/><text font-family="Arial" font-size="14" x="510" y="549.234">存储各关卡通关时间排行</text></g></g></svg></g></g></g></g></g></g></svg>