<svg width="3785" height="2775" viewBox="-0.5 -0.5 3785 2775" xmlns="http://www.w3.org/2000/svg" xmlns:xlink="http://www.w3.org/1999/xlink" overflow="hidden"><defs></defs><rect x="0" y="0" width="100%" height="100%" fill="#FFFFFF"/><g><g><g><g><g><rect x="0" y="0" width="750" height="325" stroke="#000000" stroke-width="5" fill="#FFFFFF"/><path d="M375 325 375 2770" stroke="#000000" stroke-width="5" stroke-miterlimit="10" stroke-dasharray="15 15" fill="none"/></g><g><g transform="matrix(5 0 0 5 -0.5 -0.5)"><g><text font-family="Helvetica" font-size="12" text-anchor="middle" x="75" y="36">User</text></g></g></g></g><g><g><rect x="1000" y="0" width="750" height="325" stroke="#000000" stroke-width="5" fill="#FFFFFF"/><path d="M1375 325 1375 2770" stroke="#000000" stroke-width="5" stroke-miterlimit="10" stroke-dasharray="15 15" fill="none"/></g><g><g transform="matrix(5 0 0 5 -0.5 -0.5)"><g><text font-family="Helvetica" font-size="12" text-anchor="middle" x="275" y="36">游戏界面</text></g></g></g></g><g><g><rect x="2000" y="0" width="750" height="325" stroke="#000000" stroke-width="5" fill="#FFFFFF"/><path d="M2375 325 2375 2770" stroke="#000000" stroke-width="5" stroke-miterlimit="10" stroke-dasharray="15 15" fill="none"/></g><g><g transform="matrix(5 0 0 5 -0.5 -0.5)"><g><text font-family="Helvetica" font-size="12" text-anchor="middle" x="475" y="36">后端服务</text></g></g></g></g><g><g><rect x="3030" y="0" width="750" height="325" stroke="#000000" stroke-width="5" fill="#FFFFFF"/><path d="M3405 325 3405 2770" stroke="#000000" stroke-width="5" stroke-miterlimit="10" stroke-dasharray="15 15" fill="none"/></g><g><g transform="matrix(5 0 0 5 -0.5 -0.5)"><g><text font-family="Helvetica" font-size="12" text-anchor="middle" x="681" y="36">User表</text></g></g></g></g><g><g><path d="M373.33 535 920 535 1331.91 535" stroke="#000000" stroke-width="5" stroke-miterlimit="10" fill="none"/><path d="M1366.91 535 1331.91 552.5 1331.91 517.5Z" stroke="#000000" stroke-width="5" stroke-miterlimit="10"/></g><g><g font-family="Helvetica" font-size="55" text-anchor="middle"><rect x="767" y="464" width="222" height="70" stroke-width="0" fill="#FFFFFF"/><text x="872.83" y="509.5">打开应用</text></g></g></g><g><g><path d="M1373.33 795C1544.44 795 1630 820 1630 870 1630 920 1557.97 945 1413.92 945" stroke="#000000" stroke-width="5" stroke-miterlimit="10" fill="none"/><path d="M1378.92 945 1413.92 927.5 1413.92 962.5Z" stroke="#000000" stroke-width="5" stroke-miterlimit="10"/></g><g><g font-family="Helvetica" font-size="55" text-anchor="middle"><rect x="1496" y="848" width="277" height="70" stroke-width="0" fill="#FFFFFF"/><text x="1629.5" y="893.67">加载主界面</text></g></g></g><g><g><path d="M373.33 1205 920 1205 1331.91 1205" stroke="#000000" stroke-width="5" stroke-miterlimit="10" fill="none"/><path d="M1366.91 1205 1331.91 1222.5 1331.91 1187.5Z" stroke="#000000" stroke-width="5" stroke-miterlimit="10"/></g><g><g font-family="Helvetica" font-size="55" text-anchor="middle"><rect x="704" y="1134" width="347" height="70" stroke-width="0" fill="#FFFFFF"/><text x="872.83" y="1179.5">选择登录/注册</text></g></g></g><g><g><path d="M1373.33 1465 1920 1465 2331.91 1465" stroke="#000000" stroke-width="5" stroke-miterlimit="10" fill="none"/><path d="M2366.91 1465 2331.91 1482.5 2331.91 1447.5Z" stroke="#000000" stroke-width="5" stroke-miterlimit="10"/></g><g><g font-family="Helvetica" font-size="55" text-anchor="middle"><rect x="1767" y="1394" width="222" height="70" stroke-width="0" fill="#FFFFFF"/><text x="1872.83" y="1439.5">发送凭证</text></g></g></g><g><g><path d="M2373.33 1725 2935 1725 3361.91 1725" stroke="#000000" stroke-width="5" stroke-miterlimit="10" fill="none"/><path d="M3396.91 1725 3361.91 1742.5 3361.91 1707.5Z" stroke="#000000" stroke-width="5" stroke-miterlimit="10"/></g><g><g font-family="Helvetica" font-size="55" text-anchor="middle"><rect x="2666" y="1654" width="457" height="70" stroke-width="0" fill="#FFFFFF"/><text x="2889.5" y="1699.5">验证/存储用户数据</text></g></g></g><g><g><path d="M3402.5 1985 2950 1985 2413.92 1985" stroke="#000000" stroke-width="5" stroke-miterlimit="10" fill="none"/><path d="M2378.92 1985 2413.92 1967.5 2413.92 2002.5Z" stroke="#000000" stroke-width="5" stroke-miterlimit="10"/></g><g><g font-family="Helvetica" font-size="55" text-anchor="middle"><rect x="2724" y="1914" width="332" height="70" stroke-width="0" fill="#FFFFFF"/><text x="2885.33" y="1959.5">返回认证结果</text></g></g></g><g><g><path d="M2372.5 2245 1935 2245 1413.92 2245" stroke="#000000" stroke-width="5" stroke-miterlimit="10" fill="none"/><path d="M1378.92 2245 1413.92 2227.5 1413.92 2262.5Z" stroke="#000000" stroke-width="5" stroke-miterlimit="10"/></g><g><g font-family="Helvetica" font-size="55" text-anchor="middle"><rect x="1766" y="2174" width="222" height="70" stroke-width="0" fill="#FFFFFF"/><text x="1872" y="2219.5">认证响应</text></g></g></g></g></g></g></svg>